<svg fill="#000000" xmlns="http://www.w3.org/2000/svg"  viewBox="0 0 32 32" width="64px" height="64px"><path d="M 15.96875 4.8125 C 15.042969 4.8125 14.105469 5.175781 13.40625 5.875 L 4.0625 15.21875 C 2.660156 16.621094 2.660156 18.941406 4.0625 20.34375 L 9.59375 25.875 C 10.09375 26.375 10.566406 26.863281 11.1875 27.28125 C 11.808594 27.699219 12.589844 28 13.5 28 L 18.59375 28 C 19.503906 28 20.285156 27.699219 20.90625 27.28125 C 21.527344 26.863281 22 26.375 22.5 25.875 L 27.9375 20.40625 C 29.335938 19.003906 29.339844 16.714844 27.9375 15.3125 L 18.5 5.875 C 17.800781 5.175781 16.894531 4.8125 15.96875 4.8125 Z M 15.96875 6.8125 C 16.378906 6.8125 16.777344 6.964844 17.09375 7.28125 L 26.53125 16.71875 C 27.160156 17.347656 27.160156 18.371094 26.53125 19 L 21.09375 24.4375 C 20.578125 24.953125 20.152344 25.375 19.78125 25.625 C 19.410156 25.875 19.117188 26 18.59375 26 L 13.5 26 C 12.976563 26 12.683594 25.875 12.3125 25.625 C 11.941406 25.375 11.515625 24.953125 11 24.4375 L 5.46875 18.90625 C 4.839844 18.277344 4.839844 17.253906 5.46875 16.625 L 14.8125 7.28125 C 15.128906 6.964844 15.558594 6.8125 15.96875 6.8125 Z M 16 10.9375 C 15.9375 10.9375 15.863281 10.949219 15.8125 11 L 9.40625 17.40625 C 9.308594 17.503906 9.308594 17.652344 9.40625 17.75 L 10.25 18.59375 C 10.347656 18.691406 10.550781 18.75 10.6875 18.75 L 11.09375 18.75 C 11.230469 18.75 11.433594 18.691406 11.53125 18.59375 L 17.46875 12.65625 C 17.566406 12.558594 17.566406 12.410156 17.46875 12.3125 L 16.15625 11 C 16.105469 10.949219 16.0625 10.9375 16 10.9375 Z M 15.96875 16 C 15.90625 16 15.832031 16.042969 15.78125 16.09375 L 11.9375 19.90625 C 11.839844 20.003906 11.839844 20.183594 11.9375 20.28125 L 12.78125 21.09375 C 12.878906 21.191406 13.082031 21.28125 13.21875 21.28125 L 13.625 21.28125 C 13.761719 21.28125 13.964844 21.191406 14.0625 21.09375 L 17.4375 17.71875 C 17.535156 17.621094 17.535156 17.472656 17.4375 17.375 L 16.125 16.09375 C 16.074219 16.042969 16.03125 16 15.96875 16 Z M 15.96875 21.09375 C 15.90625 21.09375 15.832031 21.105469 15.78125 21.15625 L 14.5 22.46875 C 14.402344 22.566406 14.402344 22.714844 14.5 22.8125 L 15.3125 23.65625 C 15.410156 23.753906 15.613281 23.8125 15.75 23.8125 L 16.15625 23.8125 C 16.292969 23.8125 16.496094 23.753906 16.59375 23.65625 L 17.4375 22.8125 C 17.535156 22.714844 17.535156 22.535156 17.4375 22.4375 L 16.15625 21.15625 C 16.105469 21.105469 16.03125 21.09375 15.96875 21.09375 Z"/></svg>