<?xml version="1.0" encoding="UTF-8" standalone="no"?>
<svg
   viewBox="0 0 8500 11000"
   version="1.1"
   id="svg29"
   xmlns="http://www.w3.org/2000/svg">
  <defs
     id="defs4">
    <style
       type="text/css"
       id="style2">
            svg {
                shape-rendering: geometricPrecision;
                text-rendering: geometricPrecision;
                fill-rule: evenodd;
                clip-rule: evenodd;
            }

            path {
            stroke-width: 18px;
            stroke-linecap: square;
            stroke-miterlimit: 23;
            }

            path {
            stroke: black;
            fill: transparent;
            }
        </style>
  </defs>
  <g id="fuselage">
    <path
       id="fuselage_right_wheel"
       d="M 2486.1799,3860.8301 2630.8,3593.6299 m -37.75,-53.1299 37.73,11.1001 m -271,313.3099 233.27,-324.41 -10.32,-48.95 m 48.71,1.52 -48.87,-2.26 c -80.28,-15.81 -174.52,-31.62 -216.41,-117.44 38.4,-90.34 178.02,-115.19 265.28,-115.19" />
    <path
       id="fuselage_outline"
       d="m 6491.11,4411.57 -44.45,21.9 -41.89,4.4 -523.82,88.89 -1833.35,302.1 -271.26,26.17 -575.96,11.96 -66.33,6.59 -188.46,-11.81 -569.965,-22.3151 1.02,-973.1299 570.025,-20.745 188.49,-11.3 66.32,6.78 575.93,13.55 271.19,26.92 1832.5,307.16 523.57,90.34 41.89,4.52 44.39,22.02" />
    <path
       id="fuselage_left_wheel"
       d="m 2485.1499,4845.27 143.8801,267.5899 m -37.9001,53.0302 37.76,-11 M 2358.76,4840.83 l 232.37,325.06 -10.45,48.92 m 48.72,-1.38 -48.87,2.12 c -80.33,15.59 -174.61,31.14 -216.74,116.85 38.15,90.44 177.7,115.68 264.96,115.92" />
    <path
       id="fuselage_canopy"
       d="m 3956.96,4837 c 39.13,-22.62 168.7,-84.95 204.39,-230.62 27.44,-96.38 27.44,-406.94 0,-503.32 -35.69,-145.67 -165.26,-208 -204.39,-230.62 m 90.63,956.43 c 202.71,-94.3 200.75,-259.98 201.17,-473.39 -0.16,-213.41 2.26,-379.09 -200.19,-473.94 M 3200.3701,4866.7598 3201.46,3841.3 m -36,1029.0501 1.1001,-1032.7202 m -32.5201,1034.9302 1.0999,-1037.23 M 2935.26,4860.82 c -56.49,-24.18 -208.35,-51.97 -261.23,-197.69 -23.71,-66.32 -36.75,-188.44 -36.47,-309.88 -0.27,-121.43 13.11,-243.52 37,-309.78 53.28,-145.57 205.22,-172.94 261.77,-196.97" />
  </g>
  <g
     id="firewall_forward">
    <path
       id="firewall_forward_outline"
       d="m 2375.63,4840.05 c -112.77,-0.31 -792.93,-75.88 -847.83,-131.08 -27.8,-45.25 10.95,-173.88 -41.335,-198.8651 l 0.105,-316.8898 c 52.36,-24.8551 13.96,-153.5851 41.89,-198.7551 55.05,-55.05 735.42,-128.74 848.19,-128.74" />
    <path
       id="firewall_forward_spinner"
       d="m 1486.47,4510.1 c -87.26,-0.24 -320.93,-73.16 -355.76,-158.93 34.74,-85.69 268.6,-157.96 355.86,-157.96" />
  </g>
  <g
     id="empennage">
    <path
       id="empennage_vertical_details"
       d="m 6390.8699,4410.1899 c -0.067,-34.4966 -0.1233,-68.9931 -0.18,-103.4897 M 6918.74,4389.06 c 20.92,9.09 90.14,10.93 97.18,-9.38 m -150.3,13.9 c -0.16,58.72 -6.43,48.63 -16.77,1.17 m 69.64,-65.47 c 20.94,-9.04 90.18,-10.68 97.16,9.65 m -150.26,-14.32 c 0,-58.72 -6.3,-48.65 -16.77,-1.22" />
    <path
       id="empennage_trim_tab"
       d="m 6638.69,4515.19 -1.19,431.37 3.48,4.53 90.75,0.25" />
    <path
       id="empennage_vertical_outline"
       d="m 5838.28,4357.68 c 32.74,-68.24 469.6,-52.78 552.41,-51.53 109.44,-5.25 699.2,23.8 695.85,53.26 3.6,29.46 -586.23,56.88 -695.66,51.33 -82.82,1.01 -519.72,15.26 -552.6,-53.06 z" />
    <path
       id="empennage_right_horizontal_details"
       d="m 6404.66,4276.79 6.97,-1122.5 -6.98,-4.52 h -185 l -3.48,-4.51 -3.5,-85.83" />
    <path
       id="empennage_right_horizontal_outline"
       d="m 6448.37,4282.75 329.76,-136.96 -122.17,-1054.74 c -45.37,-31.62 -359.52,-31.62 -443.29,-31.62 -22.86,0 -45.94,-0.22 -68.77,0 -9.28,0.13 -24.61,0.83 -33.1,4.15 -3.81,1.49 -19.76,8.41 -21.87,11.15 -42.76,55.57 -131.56,591.06 -149.2,699.57 -17.16,105.56 -33.73,211.88 -47.73,317.91 -4,30.31 -8.23,61.81 -10.62,92.28 -0.11,1.41 -0.21,2.82 -0.31,4.23" />
    <path
       id="empennage_left_horizontal_details"
       d="m 6404.76,4440.13 3.87,1122.52 -6.99,4.5 -185,-0.52 -3.5,4.51 -3.73,85.82" />
    <path
       id="empennage_left_horizontal_outline"
       d="m 6448.49,4434.3 329.38,137.87 -125.08,1054.4 c -45.46,31.49 -359.61,30.63 -443.38,30.39 -22.86,-0.06 -45.94,0.1 -68.77,-0.19 -9.28,-0.15 -24.61,-0.89 -33.09,-4.24 -3.81,-1.5 -19.74,-8.47 -21.84,-11.21 -42.6,-55.69 -129.92,-591.41 -147.26,-699.98 -16.87,-105.6 -33.14,-211.97 -46.85,-318.04 -3.92,-30.32 -8.06,-61.83 -10.37,-92.31 -0.11,-1.41 -0.2,-2.82 -0.3,-4.23" />
  </g>
  <g
     id="right_wing">
    <path
       id="right_wing_details"
       d="M 3777.3899,3854.6201 3776.3201,1157.74 m -10e-5,1285.11 c 31.42,0 49.36,-1.03 31.91,35.11 m 240.35,1.02 -239.91,-0.12 -31.42,4.52 m 30.49,-1325.64 c 0,24.84 -3.49,18.07 -31.42,18.07 m -1137.8901,-22.59 1410.1502,4.52" />
    <path
       id="right_wing_outline"
       d="M4048.58 3880.2l0 -2713.08c0,-2.81 0.11,-5.93 0.32,-9.28 1.59,-26.05 8.74,-66.6 11.35,-91.24 12.16,-114.28 20.02,-209.02 39.15,-323.55 9.41,-56.24 -32.54,-37.28 -62.37,-30.71 -154.44,34.02 -613.31,81.55 -738.91,99.83 -240.84,38.39 -659.7,11.29 -659.7,341.04l-6.98 2104.96 3.27 598.43" />
  </g>
  <g
     id="left_wing">
    <path
       id="left_wing_outline"
       d="m 4047.59,4830.2 -7.5,2713.07 c -0.01,2.81 0.1,5.92 0.29,9.28 1.52,26.06 8.55,66.63 11.11,91.28 11.84,114.31 19.44,209.07 38.26,323.65 9.25,56.28 -32.65,37.19 -62.46,30.54 -154.35,-34.44 -613.09,-83.24 -738.63,-101.87 -240.74,-39.06 -659.67,-13.12 -658.76,-342.86 l -1.16,-2104.98 4.93,-598.42" />
    <path
       id="left_wing_details"
       d="m 3799.23,7552 c 0.07,-24.84 -3.44,-18.08 -31.37,-18.15 m 275.86,-1302.43 -239.91,-0.54 -31.4,-4.6 m 3.9201,-1371.24 -8.52,2696.8702 M 3771.37,6266.81 c 31.41,0.09 49.35,1.16 32,-35.02 m -1173.4601,1321.5 1410.1602,-0.6201" />
  </g>
</svg>
