<?xml version="1.0" encoding="UTF-8"?>
<!DOCTYPE svg PUBLIC "-//W3C//DTD SVG 1.1//EN" "http://www.w3.org/Graphics/SVG/1.1/DTD/svg11.dtd">
<svg xmlns="http://www.w3.org/2000/svg" width="8.5in" height="11in" version="1.1"
     style="shape-rendering:geometricPrecision; text-rendering:geometricPrecision; image-rendering:optimizeQuality; fill-rule:evenodd; clip-rule:evenodd"
     viewBox="0 0 8500 11000">
    <defs>
        <style type="text/css">
            <![CDATA[
    .str0 {stroke:black;stroke-width:10.42;stroke-linecap:square;stroke-miterlimit:22.9256}
    .fil0 {fill:none}
   ]]>
        </style>
    </defs>
    <g id="Layer_x0020_1">
        <metadata id="CorelCorpID_0Corel-Layer"/>
        <line class="fil0 str0" x1="1486.57" y1="4193.22" x2="1486.46" y2="4510.11"/>
        <line class="fil0 str0" x1="2376.64" y1="3866.93" x2="2375.62" y2="4838.86"/>
        <path class="fil0 str0"
              d="M4048.58 3880.2l0 -2713.08c0,-2.81 0.11,-5.93 0.32,-9.28 1.59,-26.05 8.74,-66.6 11.35,-91.24 12.16,-114.28 20.02,-209.02 39.15,-323.55 9.41,-56.24 -32.54,-37.28 -62.37,-30.71 -154.44,34.02 -613.31,81.55 -738.91,99.83 -240.84,38.39 -659.7,11.29 -659.7,341.04l-6.98 2104.96 3.27 598.43"/>
        <line class="fil0 str0" x1="2638.43" y1="1153.22" x2="4048.58" y2="1157.74"/>
        <path class="fil0 str0"
              d="M2631.44 3493.07l-48.87 -2.26c-80.28,-15.81 -174.52,-31.62 -216.41,-117.44 38.4,-90.34 178.02,-115.19 265.28,-115.19"/>
        <path class="fil0 str0" d="M3807.74 1157.74c0,24.84 -3.49,18.07 -31.42,18.07"/>
        <polyline class="fil0 str0" points="4048.58,2478.98 3808.67,2478.86 3777.25,2483.38 "/>
        <path class="fil0 str0" d="M3776.32 2442.85c31.42,0 49.36,-1.03 31.91,35.11"/>
        <line class="fil0 str0" x1="3777.39" y1="3854.62" x2="3776.32" y2="1157.74"/>
        <path class="fil0 str0"
              d="M6448.37 4282.75l329.76 -136.96 -122.17 -1054.74c-45.37,-31.62 -359.52,-31.62 -443.29,-31.62 -22.86,0 -45.94,-0.22 -68.77,0 -9.28,0.13 -24.61,0.83 -33.1,4.15 -3.81,1.49 -19.76,8.41 -21.87,11.15 -42.76,55.57 -131.56,591.06 -149.2,699.57 -17.16,105.56 -33.73,211.88 -47.73,317.91 -4,30.31 -8.23,61.81 -10.62,92.28 -0.11,1.41 -0.21,2.82 -0.31,4.23"/>
        <polyline class="fil0 str0"
                  points="6404.66,4276.79 6411.63,3154.29 6404.65,3149.77 6219.65,3149.77 6216.17,3145.26 6212.67,3059.43 "/>
        <polyline class="fil0 str0" points="2359.78,3864.91 2593.05,3540.5 2582.73,3491.55 "/>
        <line class="fil0 str0" x1="2593.05" y1="3540.5" x2="2630.78" y2="3551.6"/>
        <line class="fil0 str0" x1="2486.18" y1="3860.83" x2="2630.8" y2="3593.63"/>
        <path class="fil0 str0"
              d="M5838.28 4357.68c32.74,-68.24 469.6,-52.78 552.41,-51.53 109.44,-5.25 699.2,23.8 695.85,53.26 3.6,29.46 -586.23,56.88 -695.66,51.33 -82.82,1.01 -519.72,15.26 -552.6,-53.06z"/>
        <path class="fil0 str0" d="M6865.39 4324.61c0,-58.72 -6.3,-48.65 -16.77,-1.22"/>
        <path class="fil0 str0" d="M6918.49 4329.28c20.94,-9.04 90.18,-10.68 97.16,9.65"/>
        <line class="fil0 str0" x1="6390.61" y1="4357.82" x2="6390.69" y2="4306.7"/>
        <path class="fil0 str0"
              d="M4047.59 4830.2l-7.5 2713.07c-0.01,2.81 0.1,5.92 0.29,9.28 1.52,26.06 8.55,66.63 11.11,91.28 11.84,114.31 19.44,209.07 38.26,323.65 9.25,56.28 -32.65,37.19 -62.46,30.54 -154.35,-34.44 -613.09,-83.24 -738.63,-101.87 -240.74,-39.06 -659.67,-13.12 -658.76,-342.86l-1.16 -2104.98 4.93 -598.42"/>
        <line class="fil0 str0" x1="2629.91" y1="7553.29" x2="4040.07" y2="7552.67"/>
        <path class="fil0 str0"
              d="M2629.4 5213.43l-48.87 2.12c-80.33,15.59 -174.61,31.14 -216.74,116.85 38.15,90.44 177.7,115.68 264.96,115.92"/>
        <path class="fil0 str0" d="M3799.23 7552c0.07,-24.84 -3.44,-18.08 -31.37,-18.15"/>
        <polyline class="fil0 str0" points="4043.72,6231.42 3803.81,6230.88 3772.41,6226.28 "/>
        <path class="fil0 str0" d="M3771.37 6266.81c31.41,0.09 49.35,1.16 32,-35.02"/>
        <line class="fil0 str0" x1="3776.33" y1="4855.04" x2="3767.81" y2="7551.91"/>
        <path class="fil0 str0"
              d="M6448.49 4434.3l329.38 137.87 -125.08 1054.4c-45.46,31.49 -359.61,30.63 -443.38,30.39 -22.86,-0.06 -45.94,0.1 -68.77,-0.19 -9.28,-0.15 -24.61,-0.89 -33.09,-4.24 -3.81,-1.5 -19.74,-8.47 -21.84,-11.21 -42.6,-55.69 -129.92,-591.41 -147.26,-699.98 -16.87,-105.6 -33.14,-211.97 -46.85,-318.04 -3.92,-30.32 -8.06,-61.83 -10.37,-92.31 -0.11,-1.41 -0.2,-2.82 -0.3,-4.23"/>
        <path class="fil0 str0"
              d="M6491.11 4411.57l-44.45 21.9 -41.89 4.4 -523.82 88.89 -1833.35 302.1 -271.26 26.17 -575.96 11.96 -66.33 6.59 -188.46 -11.81 -569.96 -21.72c-112.77,-0.31 -792.93,-75.88 -847.83,-131.08 -27.8,-45.25 10.95,-173.88 -41.33,-198.87 -87.26,-0.24 -320.93,-73.16 -355.76,-158.93 34.74,-85.69 268.6,-157.96 355.86,-157.96 52.36,-24.85 13.96,-153.58 41.89,-198.75 55.05,-55.05 735.42,-128.74 848.19,-128.74l570.02 -20.14 188.49 -11.3 66.32 6.78 575.93 13.55 271.19 26.92 1832.5 307.16 523.57 90.34 41.89 4.52 44.39 22.02"/>
        <polyline class="fil0 str0"
                  points="6404.76,4440.13 6408.63,5562.65 6401.64,5567.15 6216.64,5566.63 6213.14,5571.14 6209.41,5656.96 "/>
        <polyline class="fil0 str0" points="2358.76,4840.83 2591.13,5165.89 2580.68,5214.81 "/>
        <line class="fil0 str0" x1="2591.13" y1="5165.89" x2="2628.89" y2="5154.89"/>
        <line class="fil0 str0" x1="2485.15" y1="4845.27" x2="2629.03" y2="5112.86"/>
        <path class="fil0 str0" d="M6865.62 4393.58c-0.16,58.72 -6.43,48.63 -16.77,1.17"/>
        <path class="fil0 str0" d="M6918.74 4389.06c20.92,9.09 90.14,10.93 97.18,-9.38"/>
        <line class="fil0 str0" x1="6390.94" y1="4359.06" x2="6390.87" y2="4410.19"/>
        <polyline class="fil0 str0" points="6638.69,4515.19 6637.5,4946.56 6640.98,4951.09 6731.73,4951.34 "/>
        <path class="fil0 str0"
              d="M2935.26 4860.82c-56.49,-24.18 -208.35,-51.97 -261.23,-197.69 -23.71,-66.32 -36.75,-188.44 -36.47,-309.88 -0.27,-121.43 13.11,-243.52 37,-309.78 53.28,-145.57 205.22,-172.94 261.77,-196.97"/>
        <line class="fil0 str0" x1="3134.04" y1="4872.56" x2="3135.14" y2="3835.33"/>
        <line class="fil0 str0" x1="3165.46" y1="4870.35" x2="3166.56" y2="3837.63"/>
        <line class="fil0 str0" x1="3200.37" y1="4866.76" x2="3201.46" y2="3841.3"/>
        <path class="fil0 str0"
              d="M4047.59 4828.87c202.71,-94.3 200.75,-259.98 201.17,-473.39 -0.16,-213.41 2.26,-379.09 -200.19,-473.94"/>
        <path class="fil0 str0"
              d="M3956.96 4837c39.13,-22.62 168.7,-84.95 204.39,-230.62 27.44,-96.38 27.44,-406.94 0,-503.32 -35.69,-145.67 -165.26,-208 -204.39,-230.62"/>
    </g>
</svg>
